<?xml version="1.0" standalone="no"?>
<!DOCTYPE svg PUBLIC "-//W3C//DTD SVG 20010904//EN"
 "http://www.w3.org/TR/2001/REC-SVG-20010904/DTD/svg10.dtd">
<svg version="1.0" xmlns="http://www.w3.org/2000/svg"
 width="1078.000000pt" height="1280.000000pt" viewBox="0 0 1078.000000 1280.000000"
 preserveAspectRatio="xMidYMid meet">
<metadata>
Created by potrace 1.15, written by Peter Selinger 2001-2017
</metadata>
<g transform="translate(0.000000,1280.000000) scale(0.100000,-0.100000)"
fill="#000000" stroke="none">
<path d="M1292 12783 c124 -145 297 -349 480 -569 273 -327 477 -554 585 -653
l81 -74 -81 -91 c-67 -77 -109 -128 -229 -288 -12 -15 -42 7 -283 203 -148
121 -362 293 -475 382 -113 89 -299 240 -415 336 -116 96 -219 181 -231 190
-39 30 111 -111 361 -338 138 -126 309 -282 380 -347 72 -66 169 -151 216
-190 101 -85 375 -293 395 -301 10 -4 3 -26 -31 -94 -50 -100 -125 -280 -125
-301 0 -20 21 -38 43 -38 10 0 34 12 53 26 19 15 34 24 34 22 0 -2 -28 -54
-63 -115 -35 -60 -76 -138 -93 -171 -16 -34 -34 -62 -40 -62 -5 0 -86 41 -180
91 -93 50 -243 128 -334 174 -91 45 -217 111 -280 147 -63 36 -160 89 -215
118 -55 29 -198 107 -318 172 -241 131 -337 180 -337 174 0 -2 48 -32 107 -67
60 -35 252 -151 428 -258 421 -255 683 -408 912 -532 104 -56 189 -102 191
-104 5 -4 -242 -485 -250 -485 -4 0 -112 47 -240 104 -258 115 -1115 459
-1131 453 -5 -1 21 -16 59 -32 38 -16 182 -82 319 -148 138 -65 330 -157 428
-204 98 -47 260 -120 360 -162 135 -58 183 -83 186 -97 1 -10 10 -27 18 -36
21 -23 11 -162 -22 -308 -12 -58 -26 -123 -30 -146 l-6 -41 -117 34 c-411 119
-628 170 -1160 273 -235 46 -315 50 -127 6 247 -57 691 -174 1120 -296 94 -26
194 -54 222 -61 61 -15 60 0 8 -169 -18 -58 -39 -131 -46 -164 l-13 -58 -100
6 c-56 3 -227 13 -381 21 -333 18 -682 42 -819 55 -91 9 -130 7 -95 -4 20 -7
715 -84 909 -100 91 -8 237 -18 325 -21 192 -9 205 -14 204 -90 0 -27 -12
-147 -27 -265 l-27 -215 -340 -6 c-187 -4 -427 -8 -533 -9 -106 -2 -195 -6
-197 -10 -6 -10 789 -24 947 -18 97 4 118 3 118 -9 0 -25 -30 -297 -36 -321
-5 -23 -6 -22 -33 15 -61 84 -166 153 -234 153 -18 0 -19 5 -12 71 6 58 5 71
-6 67 -8 -3 -20 -32 -28 -65 l-14 -61 -56 -7 c-30 -4 -85 -16 -121 -27 -90
-28 -240 -105 -240 -123 0 -20 19 -19 44 4 32 28 186 90 270 108 65 14 79 15
102 3 19 -11 27 -11 33 -2 8 14 65 1 121 -28 81 -41 170 -173 170 -250 0 -41
12 -73 35 -97 14 -13 27 -82 50 -254 8 -62 18 -115 21 -118 12 -10 -5 252 -20
319 -14 61 -14 66 4 85 11 11 33 45 50 75 l31 55 -5 -75 c-14 -185 -18 -556
-7 -710 9 -138 42 -383 67 -504 l6 -30 -50 45 c-48 42 -50 47 -62 119 -26 156
-80 288 -153 367 -29 32 -67 58 -122 84 -93 43 -115 65 -181 179 -64 111 -163
212 -240 246 -85 38 -190 43 -281 16 -70 -22 -155 -76 -167 -108 -11 -28 2
-29 24 -1 12 14 51 41 88 59 63 31 73 33 172 33 91 0 112 -3 155 -25 73 -35
163 -130 227 -240 69 -116 92 -139 189 -183 91 -41 144 -93 187 -182 31 -62
62 -167 77 -254 7 -42 7 -43 -16 -35 -13 5 -52 9 -86 9 -51 0 -66 -4 -87 -24
-27 -25 -34 -51 -15 -51 7 0 27 10 46 21 39 24 95 21 143 -8 33 -19 39 -56 41
-253 1 -83 4 -125 9 -110 4 14 9 93 9 175 l2 150 36 -40 c19 -22 42 -50 50
-62 8 -12 41 -154 73 -316 68 -340 118 -551 189 -798 51 -177 234 -721 310
-923 22 -60 41 -110 41 -112 0 -3 -24 11 -52 29 -29 19 -65 41 -79 50 -20 12
-33 37 -54 99 -35 105 -69 174 -134 266 -58 81 -210 237 -277 283 -24 16 -44
31 -44 33 0 2 7 21 16 42 37 89 -5 205 -137 377 l-81 107 -9 85 c-10 96 -35
155 -104 245 -49 63 -149 160 -230 221 -30 23 -55 46 -55 51 0 15 -52 59 -87
73 -41 17 -53 47 -53 128 0 89 -24 188 -62 260 -71 133 -219 243 -345 254 -61
6 -133 -10 -133 -28 0 -6 9 -7 23 -2 12 4 52 8 88 8 84 -1 171 -42 248 -117
102 -99 146 -198 156 -351 11 -147 10 -145 68 -171 29 -12 59 -31 67 -42 15
-18 14 -18 -12 -1 -55 35 -132 59 -191 58 -110 0 -233 -79 -360 -229 -108
-128 -103 -130 24 -6 157 153 240 204 332 204 96 -1 238 -78 376 -206 145
-135 200 -226 210 -353 4 -47 12 -95 18 -106 6 -11 43 -60 82 -109 130 -166
168 -286 113 -363 -13 -18 -21 -37 -17 -43 3 -5 31 -26 61 -46 83 -55 233
-210 296 -305 58 -88 94 -165 122 -261 17 -61 25 -69 135 -141 107 -69 176
-197 252 -461 23 -82 39 -120 50 -123 10 -3 28 -35 44 -76 16 -40 68 -169 117
-287 274 -657 444 -1091 503 -1280 147 -467 184 -585 182 -587 -1 -1 -67 -3
-145 -4 -79 -2 -146 -7 -148 -11 -3 -4 21 -8 53 -9 32 0 52 -3 45 -6 -29 -12
-4 -21 117 -44 l130 -24 11 -65 c6 -36 36 -168 65 -295 59 -251 116 -519 135
-632 6 -40 18 -77 25 -83 18 -15 52 -4 59 18 9 29 34 219 51 377 16 150 22
548 9 600 l-6 26 253 -1 c299 -1 404 14 499 71 30 18 102 56 160 84 64 32 155
90 233 149 71 53 147 106 170 118 56 28 121 73 158 109 27 26 139 89 159 89 5
0 40 -53 78 -117 73 -123 157 -243 169 -243 18 0 71 83 140 217 41 79 86 165
101 191 l28 47 134 45 c133 44 171 65 291 156 48 37 61 55 98 134 51 109 113
297 131 395 15 79 17 180 5 304 -7 75 -12 90 -42 130 -62 81 -236 253 -323
317 l-84 63 3 83 c1 46 4 84 6 86 1 1 47 10 101 18 55 9 115 25 135 35 58 29
185 181 229 274 48 100 58 149 66 317 5 104 3 147 -10 200 -25 107 -71 216
-130 308 l-54 84 20 28 c10 15 35 67 53 114 58 147 153 284 198 284 7 0 32
-16 56 -35 24 -19 45 -35 47 -35 2 0 22 16 44 36 64 58 151 66 233 21 32 -18
42 -19 70 -9 43 15 77 15 115 -1 l31 -13 6 -259 c3 -143 10 -293 16 -334 17
-140 63 -162 94 -46 8 33 15 71 15 85 l-1 25 -23 -29 -24 -29 -7 119 c-9 140
1 686 15 859 14 163 23 225 72 474 29 153 46 219 59 232 10 10 60 31 110 46
112 34 101 42 -16 13 -48 -12 -89 -19 -92 -16 -8 8 78 340 173 668 46 160 83
293 80 295 -11 11 -205 -507 -256 -683 -17 -60 -38 -122 -46 -139 -8 -16 -27
-66 -42 -110 -27 -75 -31 -81 -73 -101 l-44 -22 -8 42 c-5 22 -6 204 -4 404
l4 363 32 33 32 33 -53 21 c-53 21 -124 42 -143 42 -5 0 17 -16 49 -36 57 -36
58 -38 52 -73 -3 -20 -11 -88 -17 -151 -6 -63 -15 -123 -20 -132 -5 -10 -9
-34 -9 -53 0 -65 -106 -305 -128 -291 -21 13 -42 84 -56 189 -19 132 -67 281
-119 361 -26 41 -36 73 -52 171 -16 97 -23 121 -37 123 -16 3 -18 -6 -18 -75
l-1 -78 -42 50 c-23 28 -84 94 -137 149 l-95 98 240 -5 c269 -6 327 -15 464
-74 136 -59 234 -116 250 -147 9 -20 16 -25 24 -17 6 6 21 11 34 11 16 0 27 8
33 24 11 30 199 178 217 171 8 -2 36 19 66 49 29 30 106 92 172 138 66 46 180
129 253 185 72 56 148 107 168 113 31 11 33 13 18 25 -16 11 -16 13 0 22 17
10 13 43 -6 43 -6 0 -38 22 -72 49 -33 26 -128 92 -211 146 -199 129 -455 307
-455 315 0 4 48 10 108 13 59 4 144 12 189 18 45 6 88 9 97 7 12 -2 9 -22 -20
-111 -28 -86 -33 -111 -23 -123 6 -8 15 -14 18 -14 4 0 25 54 46 120 20 66 43
126 49 133 6 8 52 19 101 26 50 7 137 23 193 37 57 13 107 24 112 24 14 0 32
-153 37 -320 5 -152 2 -188 -23 -269 -14 -48 16 -10 56 70 22 43 42 79 45 79
7 0 -10 -40 -48 -117 -75 -148 -232 -494 -277 -608 -111 -280 -213 -635 -265
-920 -12 -61 -26 -102 -44 -130 -54 -79 -215 -372 -259 -470 -88 -197 -291
-849 -341 -1095 -22 -107 -74 -433 -96 -603 -24 -179 -38 -576 -30 -864 l7
-263 -49 0 c-193 -1 -427 -146 -518 -322 -55 -106 -78 -133 -144 -169 -55 -28
-79 -54 -66 -67 3 -3 13 2 23 11 10 9 43 27 74 41 60 26 73 42 133 151 53 96
149 189 251 242 90 47 194 76 258 71 l41 -3 8 -135 c4 -74 11 -137 15 -140 4
-3 7 -194 7 -425 0 -287 3 -426 11 -438 8 -14 7 -34 -2 -75 -25 -108 -54 -298
-74 -494 -33 -323 -23 -854 21 -1113 6 -33 13 -77 16 -98 4 -28 13 -42 34 -52
38 -20 49 -19 49 4 0 11 4 22 9 25 4 3 8 23 8 44 0 22 4 45 8 52 4 7 9 29 10
49 2 20 19 113 40 206 78 365 166 661 206 695 19 15 21 22 11 28 -15 10 -9 29
136 427 88 243 209 549 363 917 192 461 251 593 277 621 74 79 229 176 339
213 63 21 107 28 228 35 183 9 216 17 375 81 220 89 391 130 616 147 l109 8
-103 2 c-212 2 -393 -30 -582 -106 -207 -83 -212 -84 -385 -93 -228 -11 -320
-39 -470 -140 -43 -29 -114 -87 -158 -129 -44 -42 -78 -69 -74 -59 3 9 57 144
120 300 156 384 327 828 382 991 44 126 48 134 79 145 45 16 56 15 56 -7 0
-10 8 -29 18 -41 21 -26 61 -22 102 11 l25 20 -25 -7 c-14 -4 -36 -8 -50 -8
-22 -1 -25 3 -25 33 0 33 2 35 50 48 156 40 281 38 382 -7 80 -35 184 -153
215 -241 15 -45 29 -53 49 -28 20 27 58 18 99 -24 41 -42 63 -113 58 -190 -2
-52 0 -62 14 -65 12 -2 20 8 28 39 20 73 144 180 283 244 152 69 321 85 413
37 54 -27 109 -92 133 -156 l20 -51 0 46 c1 35 -6 55 -28 85 -39 54 -58 69
-126 100 -101 46 -228 37 -394 -28 -87 -34 -199 -104 -257 -160 l-42 -40 -12
51 c-16 70 -61 128 -117 153 -24 11 -55 17 -67 14 -18 -4 -26 3 -46 42 -37 69
-121 155 -187 189 -107 57 -244 67 -392 28 -35 -9 -65 -15 -66 -13 -6 6 65
139 107 201 23 34 78 99 124 144 75 75 88 84 154 104 50 15 89 35 126 66 l54
43 12 -25 c17 -37 30 -31 22 10 -5 27 -2 41 11 55 29 32 95 66 175 91 64 20
97 23 225 24 83 0 175 -3 205 -7 l55 -7 -50 16 c-37 12 -97 16 -235 17 -207 1
-238 -5 -345 -70 -32 -19 -62 -31 -65 -27 -16 17 -32 114 -37 213 -8 158 27
313 76 340 11 6 28 38 41 77 54 163 155 320 289 445 89 83 161 129 259 166 91
34 244 37 312 6 88 -40 158 -140 147 -209 -7 -42 6 -64 30 -49 27 17 21 93
-12 159 -52 107 -158 166 -300 168 -44 0 -90 -3 -101 -7 -19 -6 -22 -1 -33 54
-10 49 -20 69 -49 98 -38 38 -96 62 -149 62 -16 0 -56 10 -89 22 -47 17 -82
22 -172 22 l-112 1 0 75 c1 266 159 501 376 559 40 11 64 40 64 77 0 21 38 93
72 137 81 102 283 203 476 237 51 9 72 17 72 28 0 36 -231 -18 -362 -84 -158
-79 -256 -182 -292 -308 -11 -38 -15 -42 -81 -64 -88 -30 -179 -94 -233 -164
-90 -117 -139 -284 -129 -434 6 -82 6 -82 -20 -89 -41 -10 -134 -113 -185
-206 -43 -77 -92 -139 -101 -128 -2 2 5 60 16 129 17 108 20 175 21 490 1 201
-3 401 -7 445 l-8 80 32 -55 c42 -73 68 -100 95 -100 39 0 47 31 42 172 l-5
128 52 63 c172 207 384 337 549 337 84 -1 137 -14 234 -61 46 -22 86 -39 88
-36 7 6 -147 90 -200 109 -177 61 -407 -31 -613 -243 -39 -41 -82 -87 -96
-103 l-24 -29 -12 129 c-7 71 -24 217 -37 324 -30 244 -30 248 -2 255 13 2 95
18 183 35 88 17 293 65 455 107 162 41 362 92 443 113 82 21 152 41 155 45 4
4 -2 5 -13 2 -40 -12 -356 -78 -660 -137 -343 -68 -541 -108 -567 -116 -14 -4
-18 1 -18 21 0 14 6 28 14 31 8 3 17 12 20 19 9 24 -13 128 -54 267 -38 126
-85 348 -78 369 3 9 664 289 1203 510 120 49 191 83 193 93 3 14 -1 14 -25 5
-15 -6 -163 -58 -328 -116 -380 -133 -607 -222 -862 -338 -233 -106 -206 -113
-224 62 -11 107 -11 112 9 138 l21 27 -21 56 c-11 31 -46 104 -76 161 -31 58
-51 106 -46 108 16 5 378 241 514 334 69 47 199 137 290 201 91 63 262 179
380 258 203 135 278 188 200 143 -33 -20 -147 -89 -755 -461 -272 -166 -501
-314 -607 -391 l-58 -42 -24 53 c-126 280 -222 470 -277 550 -28 39 -23 44 15
14 51 -38 96 -31 96 16 0 25 -102 266 -146 344 -20 35 -31 64 -25 64 19 0 298
279 545 545 133 143 295 316 361 385 65 69 142 149 170 179 l50 55 -55 -50
c-124 -110 -621 -584 -856 -817 l-251 -248 -50 68 c-119 164 -288 339 -452
470 l-23 19 121 155 c141 178 217 285 484 679 280 413 292 436 71 145 -70 -93
-205 -267 -299 -385 -170 -213 -372 -480 -402 -531 l-16 -27 -86 65 c-47 36
-125 85 -174 109 -82 42 -368 144 -401 144 -23 0 -20 12 18 82 68 123 221 471
302 686 l23 62 -23 0 c-21 0 -33 -21 -101 -167 -43 -93 -97 -211 -120 -263
-23 -52 -72 -160 -110 -238 l-69 -144 -36 6 c-258 41 -378 27 -553 -61 -38
-19 -71 -32 -73 -30 -3 2 0 17 6 32 20 52 3 36 -33 -32 -39 -73 -43 -72 -26 7
7 31 19 56 32 65 21 15 21 15 1 15 -43 0 -67 -56 -80 -185 -4 -38 -15 -87 -25
-107 -51 -100 -101 -298 -119 -468 -9 -85 -8 -130 4 -236 16 -136 65 -325 110
-429 l27 -59 -72 -165 c-39 -92 -138 -305 -219 -476 -81 -170 -159 -337 -174
-371 l-27 -60 -90 -13 c-50 -7 -93 -10 -96 -7 -15 15 65 264 114 355 20 36 65
116 100 178 36 62 63 120 61 130 -1 10 1 23 5 29 4 7 -13 38 -38 70 -137 180
-303 407 -394 539 -57 83 -132 186 -166 230 -33 44 -72 98 -85 120 -31 51 -89
115 -104 115 -6 0 -36 -35 -66 -77 -68 -95 -308 -396 -382 -479 -31 -34 -98
-124 -151 -200 -52 -77 -118 -168 -146 -203 -28 -35 -51 -68 -51 -73 0 -6 -16
-32 -35 -58 -19 -26 -35 -54 -35 -61 0 -8 40 -73 88 -145 133 -198 195 -361
222 -582 19 -159 6 -153 -89 37 -45 89 -118 228 -162 309 -45 81 -137 252
-206 381 -68 128 -166 304 -218 391 l-94 157 26 64 c63 156 113 397 113 546 0
138 -55 394 -115 537 -21 50 -36 106 -39 147 -8 89 -33 158 -60 169 -23 8 -37
3 -20 -8 19 -12 32 -45 38 -97 l7 -50 -36 69 c-20 37 -38 66 -41 63 -3 -2 1
-16 7 -31 7 -14 10 -28 8 -30 -2 -2 -40 13 -85 35 -121 58 -227 83 -340 77
l-92 -5 -103 181 c-184 325 -330 556 -351 556 -16 0 -5 -26 68 -167 106 -204
222 -414 281 -507 25 -37 43 -69 41 -70 -2 -2 -52 -12 -111 -25 -146 -30 -300
-82 -432 -146 -123 -59 -178 -97 -361 -251 l-128 -107 -63 69 c-35 38 -155
170 -267 294 -111 124 -292 320 -402 435 -109 116 -255 270 -323 343 -68 73
-130 132 -139 132 -13 0 -13 -2 0 -17z m2495 -809 c106 -36 153 -95 182 -227
38 -178 61 -345 61 -443 0 -154 -26 -254 -123 -481 -46 -109 -92 -222 -102
-250 -11 -29 -21 -53 -24 -53 -4 0 -13 21 -21 48 -11 33 -24 53 -47 67 -18 11
-32 26 -33 33 0 7 14 41 31 75 44 86 74 173 54 157 -8 -7 -15 -16 -15 -20 0
-5 -21 -51 -46 -104 l-47 -96 -23 51 c-13 28 -27 68 -30 88 -11 67 24 196 83
314 29 60 62 129 73 155 10 26 26 65 35 87 37 86 -13 12 -84 -125 -42 -81 -78
-139 -84 -137 -7 3 -27 -4 -44 -15 l-33 -20 0 22 c0 58 146 441 179 470 10 9
16 20 14 26 -6 19 99 166 134 186 55 33 41 50 -21 24 -36 -15 -82 -67 -143
-162 -21 -33 -60 -85 -86 -115 -25 -30 -75 -90 -109 -133 -35 -44 -68 -81 -74
-83 -7 -2 -15 13 -19 34 -9 47 -30 89 -49 96 -8 3 -52 2 -98 -3 -88 -9 -99 -7
-80 12 16 16 15 28 0 28 -7 0 -25 -14 -40 -32 -35 -44 -45 -31 -17 24 32 65
266 414 325 487 9 10 104 12 122 2 16 -9 23 -8 29 3 16 28 101 33 170 10z
m218 -72 l70 -37 27 -78 c16 -47 35 -85 48 -94 20 -14 21 -21 15 -96 -13 -167
-27 -284 -41 -347 -15 -66 -59 -170 -73 -170 -4 0 -2 33 5 73 24 131 18 257
-20 438 -41 200 -67 269 -119 326 -39 42 -39 43 -11 32 16 -5 61 -26 99 -47z
m-575 44 c0 -3 -48 -67 -107 -143 -120 -153 -169 -225 -214 -310 -34 -65 -35
-96 -1 -101 27 -4 27 -1 2 -82 -21 -69 -64 -278 -80 -388 -32 -227 -42 -637
-20 -872 31 -352 50 -520 75 -665 18 -102 42 -205 50 -213 4 -4 4 4 1 18 -30
132 -51 291 -71 560 -34 437 -30 843 10 1155 28 220 85 474 110 495 21 17 161
25 179 11 8 -7 19 -35 25 -62 13 -61 27 -89 44 -89 17 0 72 58 136 144 28 38
51 66 51 63 0 -3 -9 -27 -21 -54 -40 -92 -99 -285 -99 -322 0 -53 11 -65 54
-58 l35 6 -7 -47 c-4 -26 -7 -78 -7 -117 0 -61 5 -82 40 -157 31 -68 46 -89
70 -100 25 -11 34 -25 54 -88 l24 -74 -27 -111 c-54 -223 -70 -460 -41 -620 8
-44 15 -128 15 -187 0 -59 5 -141 11 -183 26 -188 141 -417 305 -608 37 -44
63 -82 57 -85 -5 -4 -31 -46 -57 -94 -26 -49 -49 -88 -52 -88 -10 0 -123 90
-193 155 -39 36 -76 65 -81 65 -6 0 -8 11 -4 25 l6 25 -48 -25 c-27 -14 -105
-75 -174 -136 -69 -61 -134 -117 -145 -124 -11 -8 -48 -17 -82 -23 l-63 -9 0
39 c0 63 80 243 215 486 25 45 44 82 41 82 -2 0 -53 -70 -112 -155 -59 -84
-111 -152 -116 -149 -13 8 -9 137 7 212 25 121 93 274 205 463 33 55 55 97 50
94 -14 -9 -157 -200 -182 -245 -25 -43 -55 -52 -78 -25 -26 31 84 300 199 488
22 37 41 73 41 81 0 7 -11 18 -25 24 -13 6 -27 23 -31 38 -20 78 37 287 127
466 27 54 47 98 45 98 -8 0 -61 -88 -107 -178 -96 -186 -132 -354 -93 -434 15
-33 15 -34 -31 -113 -94 -163 -163 -327 -180 -424 -9 -55 13 -91 55 -91 17 0
30 -2 30 -4 0 -2 -13 -32 -29 -67 -75 -167 -94 -400 -35 -423 11 -4 7 -18 -16
-67 -75 -159 -60 -273 34 -255 27 6 29 5 16 -8 -50 -47 -254 -196 -260 -189
-7 8 -42 119 -157 498 -30 99 -86 302 -123 451 -73 287 -87 376 -111 729 -14
203 -5 685 15 825 15 104 103 428 164 600 3 8 2 12 -2 8 -5 -4 -28 -62 -52
-130 -51 -141 -48 -104 3 52 44 133 58 160 83 160 24 0 26 15 4 24 -29 11 -56
-15 -89 -87 -93 -203 -153 -494 -182 -887 -4 -58 -9 -91 -11 -75 -2 17 -16
122 -32 234 -17 112 -30 217 -30 233 0 37 -24 33 -28 -5 -2 -14 6 -111 17
-214 63 -569 52 -841 -70 -1681 -61 -423 -69 -589 -34 -737 14 -58 -13 -11
-61 105 -130 320 -210 595 -221 765 -5 71 -9 99 -13 80 -7 -30 -7 -30 -13 -5
-27 106 -40 303 -45 680 -7 433 -14 432 -27 -5 -13 -444 15 -663 150 -1170 25
-93 44 -173 42 -177 -1 -5 -97 182 -213 414 l-211 421 18 101 c10 56 21 112
24 126 4 18 3 21 -4 10 -5 -8 -17 -51 -26 -95 -25 -115 -28 -118 -60 -56 -25
50 -26 56 -16 121 6 38 11 85 11 106 0 32 3 36 21 31 34 -9 36 23 3 50 l-29
23 97 187 c53 104 121 244 151 313 97 220 228 484 254 512 14 14 22 31 19 36
-3 6 1 13 10 16 8 3 12 11 9 17 -9 13 -57 3 -107 -22 -21 -11 -39 -19 -42 -19
-11 0 65 164 123 266 98 172 321 436 364 431 17 -1 22 3 20 18 -2 31 279 262
403 331 123 69 474 187 474 160z m4000 -32 c14 -3 38 -25 55 -47 183 -259 296
-431 309 -475 11 -33 -16 -28 -36 8 -9 17 -24 30 -33 30 -17 0 -20 -16 -5 -25
23 -14 9 -27 -22 -21 -18 3 -59 6 -91 7 -70 2 -91 -13 -107 -82 -7 -27 -16
-49 -21 -49 -5 0 -51 53 -102 118 -52 64 -101 123 -110 131 -9 7 -30 36 -47
65 -70 122 -166 212 -201 190 -13 -7 8 -34 27 -34 29 0 142 -168 129 -190 -4
-6 1 -13 11 -17 22 -8 74 -124 130 -288 49 -142 66 -205 55 -205 -4 0 -16 7
-27 15 -10 8 -29 15 -41 15 -16 0 -28 13 -48 57 -35 78 -126 235 -132 229 -7
-6 71 -185 122 -281 49 -93 81 -222 72 -296 -3 -26 -17 -69 -31 -96 -21 -41
-25 -45 -32 -28 -21 57 -105 227 -110 223 -6 -7 37 -119 78 -202 16 -32 28
-59 26 -60 -63 -29 -82 -53 -99 -121 -7 -29 -7 -29 -14 -7 -7 21 -47 119 -164
398 -77 185 -99 364 -66 540 8 44 21 124 29 179 29 192 65 262 158 310 52 26
56 27 183 21 72 -3 141 -8 155 -12z m-414 -35 c-30 -23 -65 -88 -89 -164 -34
-104 -77 -348 -77 -435 0 -77 12 -188 26 -232 10 -32 -12 -19 -34 21 -41 73
-77 285 -83 494 -2 58 0 70 18 82 13 9 28 40 38 79 10 36 27 75 38 87 20 21
178 100 186 93 2 -2 -8 -13 -23 -25z m684 -36 c240 -78 329 -132 585 -350 240
-204 384 -376 498 -593 52 -98 101 -210 93 -210 -2 0 -23 9 -47 20 -47 21 -99
26 -99 10 0 -5 5 -10 11 -10 6 0 9 -6 6 -14 -3 -8 4 -22 15 -33 23 -19 189
-354 258 -518 23 -55 91 -195 151 -311 103 -201 108 -212 97 -246 -10 -32 0
-136 28 -300 5 -30 3 -38 -15 -47 -11 -7 -21 -19 -21 -28 0 -12 7 -14 29 -10
29 6 29 5 40 -56 6 -34 13 -82 16 -107 4 -25 24 -113 46 -197 44 -171 44 -173
24 -173 -22 0 -35 -33 -35 -89 0 -27 -5 -53 -11 -57 -16 -9 -7 -84 57 -474 30
-184 54 -344 54 -355 0 -17 -7 -20 -39 -20 -49 1 -53 5 -66 63 -8 39 -14 47
-32 47 -13 0 -29 9 -37 20 -22 29 -19 11 5 -38 21 -40 22 -58 27 -412 7 -606
-24 -921 -111 -1120 -48 -108 -117 -312 -117 -345 0 -45 18 -13 70 126 30 81
56 140 58 132 9 -44 -136 -705 -220 -1006 -113 -407 -443 -1326 -478 -1335
-10 -3 -40 -47 -67 -98 -27 -52 -72 -131 -99 -177 -27 -45 -78 -133 -114 -194
-36 -61 -70 -111 -75 -112 -22 -3 -75 397 -75 564 0 265 175 920 347 1305 64
142 287 558 291 541 5 -24 -48 -485 -74 -638 -14 -81 -40 -210 -59 -286 -58
-237 -215 -722 -315 -972 -12 -30 -17 -50 -12 -45 20 21 128 310 219 582 160
483 196 654 258 1228 l27 240 83 125 c127 191 205 359 294 633 107 330 159
659 148 932 -7 170 -26 336 -40 350 -6 7 -8 1 -4 -15 15 -66 29 -350 24 -485
-8 -178 -25 -300 -71 -490 -80 -325 -206 -632 -346 -841 -52 -76 -71 -96 -64
-67 13 56 68 358 99 538 20 116 51 288 71 384 19 95 33 176 30 178 -3 3 -7 -5
-10 -18 -34 -146 -57 -259 -135 -656 -50 -255 -91 -471 -91 -480 0 -10 -39
-65 -86 -123 -100 -123 -99 -121 -91 -95 74 273 84 341 97 670 21 521 68 718
237 1004 60 100 77 135 65 127 -6 -3 -32 -42 -58 -86 -26 -44 -48 -80 -50 -80
-2 0 30 67 71 150 208 416 298 696 326 1016 22 253 -11 597 -92 952 -12 51
-24 91 -26 88 -2 -2 5 -54 17 -115 l21 -112 -212 -419 c-117 -231 -214 -419
-215 -417 -2 2 3 28 11 58 170 632 193 800 180 1294 -11 438 -22 463 -24 55
-1 -342 -7 -448 -33 -649 -10 -81 -13 -91 -25 -75 -11 15 -13 5 -13 -69 0
-135 -87 -446 -208 -747 -68 -169 -92 -209 -70 -120 13 52 17 367 5 421 l-7
36 99 32 c101 32 123 49 99 78 -9 11 -25 14 -63 10 -47 -5 -139 4 -150 15 -2
2 -17 90 -31 196 l-27 191 24 20 24 20 -32 28 -31 28 -21 190 c-47 433 -47
719 0 1117 21 180 22 258 4 258 -5 1 -15 -43 -22 -97 -7 -54 -23 -172 -36
-263 l-23 -165 -8 130 c-12 223 -45 440 -92 616 -33 125 -92 283 -116 314 -20
25 -61 34 -73 15 -3 -5 3 -10 13 -10 11 0 25 -6 31 -14 13 -16 96 -265 105
-316 3 -19 -14 24 -39 95 -24 72 -45 132 -45 134 0 2 -2 2 -5 -1 -4 -3 19 -84
49 -181 30 -96 59 -201 66 -233 7 -33 16 -63 20 -69 13 -17 32 -212 39 -408
12 -353 -21 -874 -66 -1052 l-18 -70 -40 -3 c-22 -2 -116 -14 -209 -27 -94
-14 -183 -25 -198 -25 -29 0 -31 9 -12 68 20 65 67 426 88 682 48 566 14 1009
-109 1417 -6 17 -2 22 17 25 15 2 24 11 26 25 7 45 -94 205 -254 405 -52 65
-94 120 -94 123 0 11 76 -8 210 -52z m-3455 -460 c34 -193 20 -362 -51 -632
-41 -157 -58 -195 -49 -106 4 33 5 58 2 55 -10 -10 -100 -246 -113 -295 -21
-79 -44 -290 -44 -401 0 -201 26 -304 140 -562 65 -149 92 -192 236 -380 l91
-120 -81 -58 c-44 -32 -113 -89 -153 -127 l-73 -69 -37 42 c-151 167 -294 424
-344 619 -22 85 -48 305 -56 467 -11 219 49 574 109 642 30 35 39 64 13 42
-10 -9 -15 -9 -15 -1 0 19 92 262 97 257 3 -3 0 -19 -6 -37 -6 -18 -11 -37
-11 -43 1 -19 18 18 54 115 45 124 110 261 131 279 52 43 88 181 111 420 l7
75 13 -42 c7 -23 20 -86 29 -140z m2495 -57 c13 -131 51 -255 89 -299 34 -38
99 -172 136 -277 40 -114 47 -130 56 -130 4 0 2 19 -7 42 -8 22 -12 43 -10 45
5 5 34 -70 77 -196 26 -75 27 -82 9 -66 -30 27 -24 0 8 -37 76 -88 131 -505
103 -776 -18 -169 -39 -321 -47 -334 -4 -6 -19 13 -35 45 -40 77 -76 102 -176
118 -46 7 -88 16 -94 20 -8 5 -4 26 14 75 57 149 62 184 62 404 -1 253 -17
356 -81 519 -29 74 -44 125 -40 141 4 20 1 26 -15 26 -14 0 -19 -7 -19 -30 0
-19 -4 -26 -9 -21 -14 14 -77 274 -92 373 -16 117 -7 312 22 442 27 120 27
119 49 -84z m627 9 c28 -38 65 -83 83 -100 41 -39 60 -27 80 51 8 32 19 65 23
72 10 15 93 16 152 1 l44 -11 30 -127 c79 -327 96 -501 95 -956 0 -403 -16
-677 -54 -935 -27 -184 -28 -190 -50 -190 -10 0 -27 -3 -37 -7 -14 -5 -13 -1
6 21 24 25 25 29 14 90 -14 81 -87 253 -164 386 -60 104 -60 105 -44 133 37
62 15 201 -55 360 -39 89 -141 270 -148 263 -2 -2 19 -49 47 -103 77 -154 122
-292 128 -394 6 -89 5 -91 -41 -123 -19 -13 -18 -16 24 -87 106 -179 217 -438
208 -486 -2 -11 -14 -19 -30 -21 -20 -2 -31 4 -44 25 -32 51 -184 253 -190
253 -3 0 3 -15 14 -32 49 -81 86 -147 122 -219 l39 -77 -102 -6 c-309 -17
-370 -17 -364 -3 40 104 49 161 57 337 5 102 14 212 20 245 16 80 7 355 -15
465 -9 47 -25 120 -36 163 -20 78 -20 78 1 144 23 74 34 91 67 104 13 5 28 21
34 36 6 16 22 53 37 83 30 63 40 153 24 239 l-10 53 29 -6 c44 -9 73 24 64 72
-10 52 -73 247 -101 311 -38 86 -35 84 43 -24z m-1844 -467 c4 -82 -1 -94 -23
-53 -14 26 -30 33 -30 15 0 -6 7 -25 16 -41 15 -30 15 -31 -42 -107 -31 -42
-148 -191 -258 -329 -223 -280 -206 -267 -308 -240 l-47 13 107 142 c90 121
107 140 114 122 13 -35 28 -22 28 25 0 41 9 56 139 229 76 101 143 191 148
199 4 8 19 14 33 13 22 -1 26 4 30 44 4 30 17 62 40 94 l35 48 7 -48 c3 -27 8
-84 11 -126z m-2876 140 c-3 -8 -6 -5 -6 6 -1 11 2 17 5 13 3 -3 4 -12 1 -19z
m3005 -183 c64 -96 250 -326 425 -525 72 -81 82 -96 67 -105 -40 -24 -65 -49
-80 -77 -24 -47 -14 -58 50 -51 31 3 56 4 56 1 0 -3 -27 -61 -59 -129 -91
-192 -154 -357 -159 -419 -3 -30 -8 -57 -12 -60 -24 -15 -39 -793 -20 -1008
l10 -114 -28 -36 c-48 -62 -65 -98 -59 -123 6 -21 12 -24 59 -25 29 -1 87 -8
128 -17 l75 -15 -107 -1 c-60 -1 -108 -5 -108 -10 0 -28 333 -21 680 14 74 7
198 16 275 19 l140 6 -45 -19 c-52 -21 -61 -47 -16 -44 16 1 63 19 105 39 42
20 107 45 144 54 77 21 94 30 52 30 -24 0 -17 7 50 51 52 34 83 48 94 43 9 -4
18 -8 21 -8 3 -1 32 -30 65 -65 114 -121 306 -260 471 -341 l92 -46 -159 -109
c-87 -61 -206 -145 -265 -187 -118 -85 -122 -86 -191 -27 -35 30 -194 95 -327
133 -91 27 -170 34 -181 16 -4 -6 -106 -10 -273 -10 -147 0 -315 -5 -374 -10
l-107 -10 -65 40 c-92 56 -230 125 -312 156 -38 14 -120 48 -183 75 -62 27
-148 63 -192 80 -58 23 -77 34 -72 45 3 8 -3 25 -14 37 -20 21 -21 41 -27 567
-6 490 -21 823 -42 936 -3 19 -4 34 0 34 3 0 20 -27 37 -61 16 -34 32 -59 35
-56 13 13 -95 242 -230 487 -19 36 -36 71 -36 79 0 20 122 -183 206 -344 41
-77 74 -136 74 -132 0 12 -67 171 -97 231 -54 106 -175 285 -189 279 -8 -3
-14 -11 -14 -18 0 -26 60 -248 79 -290 20 -45 61 -280 80 -455 22 -199 31
-385 32 -655 0 -154 4 -332 9 -395 4 -63 6 -117 3 -120 -3 -3 -19 11 -36 31
-18 21 -53 61 -78 90 l-46 54 9 110 c5 61 14 118 19 127 5 11 5 20 -3 24 -7 5
-9 32 -5 83 3 42 2 128 -3 191 -5 63 -13 219 -19 345 -13 278 -23 345 -63 455
-41 113 -150 341 -171 359 -9 7 -17 17 -17 22 0 12 127 11 135 0 7 -12 65 19
65 34 0 6 14 26 31 45 17 19 26 27 19 17 -22 -30 -1 -32 22 -1 13 16 48 56 78
89 31 33 82 98 115 145 74 106 244 324 256 328 5 2 9 -3 9 -12 0 -8 9 -20 19
-26 11 -5 107 -118 214 -250 l194 -240 -40 -140 c-23 -77 -43 -138 -44 -136
-4 4 9 61 26 114 15 50 -9 37 -37 -20 -36 -71 -94 -383 -131 -708 -7 -58 -10
-248 -9 -490 3 -382 4 -396 24 -435 12 -22 26 -39 32 -38 5 1 13 -29 17 -67 4
-39 11 -70 16 -70 12 0 12 140 -1 320 -51 742 -51 717 -5 942 67 323 122 518
166 579 23 33 25 51 2 42 -13 -5 -15 -3 -9 13 12 30 46 177 46 197 0 29 -18 9
-31 -33 -14 -46 -22 -49 -36 -17 -16 35 -154 216 -266 350 l-104 123 -5 118
c-3 64 -2 114 2 109 3 -4 36 -53 72 -108z m-1432 -295 c13 -25 13 -25 -8 -6
-12 10 -19 23 -16 28 7 11 7 11 24 -22z m2570 -2 c0 -18 -2 -20 -9 -8 -6 8 -7
18 -5 22 9 14 14 9 14 -14z m-2522 -165 c151 -267 631 -1201 620 -1207 -2 -1
-34 -14 -71 -29 l-68 -27 -53 57 c-104 113 -224 251 -403 465 -101 119 -191
221 -200 227 -28 15 -25 238 6 462 23 167 26 177 50 193 14 8 27 16 28 16 1 0
42 -71 91 -157z m2532 65 c0 -4 10 -74 22 -156 17 -110 22 -191 22 -322 -1
-199 -12 -259 -84 -426 -22 -51 -40 -95 -40 -98 0 -2 25 -6 56 -9 75 -8 87
-21 49 -51 -25 -20 -27 -26 -16 -39 11 -14 9 -17 -16 -23 -168 -38 -336 -92
-408 -132 -61 -33 -81 -62 -131 -190 -30 -76 -45 -102 -64 -111 -23 -10 -23
-10 -2 -7 20 4 22 0 22 -41 0 -38 -9 -60 -49 -122 -26 -42 -68 -112 -92 -156
l-44 -80 -9 151 c-8 147 -8 152 13 173 12 12 21 26 21 31 0 6 23 61 52 123 47
103 87 198 243 582 31 77 104 246 162 375 59 129 133 298 165 375 32 77 63
150 68 162 8 20 12 21 35 11 14 -6 25 -15 25 -20z m-605 -277 c-11 -5 -36 -11
-55 -15 -35 -7 -35 -7 -10 8 14 9 39 15 55 15 25 0 27 -2 10 -8z m-1014 -433
c27 -54 32 -75 34 -143 1 -44 4 -143 8 -220 5 -127 5 -131 -4 -45 -5 52 -19
151 -30 219 -17 100 -18 125 -8 132 11 6 9 16 -6 46 -27 53 -35 73 -30 73 3 0
19 -28 36 -62z m-980 -94 c131 -162 287 -342 393 -452 56 -58 86 -96 80 -102
-5 -5 -39 -27 -74 -49 l-65 -40 -20 27 c-11 15 -64 83 -118 151 -99 125 -133
183 -209 355 -39 87 -90 226 -84 226 2 0 46 -52 97 -116z m-1618 -304 c15 -74
43 -220 63 -325 41 -217 90 -430 104 -454 11 -17 8 5 -11 80 -15 60 -59 281
-58 293 0 6 20 -58 45 -143 25 -85 80 -262 123 -392 l78 -237 -138 -111 c-76
-61 -141 -120 -144 -132 -8 -24 10 -49 35 -49 9 0 37 -14 61 -32 49 -35 218
-175 234 -193 27 -32 587 -505 598 -505 7 0 34 -22 61 -48 l50 -47 8 -210 c8
-213 2 -480 -12 -547 -5 -22 -4 -40 3 -47 7 -7 5 -20 -6 -43 l-16 -32 -7 29
c-4 16 -17 43 -29 62 -13 18 -35 68 -50 110 -15 43 -38 103 -51 133 -12 30
-37 105 -55 165 -55 187 -237 667 -261 690 -7 7 -9 7 -5 0 12 -23 172 -584
222 -780 154 -608 196 -942 195 -1552 -1 -282 -7 -386 -22 -359 -16 28 -39 20
-33 -11 24 -111 38 -139 67 -128 25 10 38 73 50 247 l11 168 56 21 c128 48
234 45 268 -8 9 -14 20 -54 24 -89 5 -34 14 -72 21 -83 7 -12 43 -37 81 -57
138 -72 194 -166 232 -392 l13 -77 1 95 c1 101 -13 169 -47 237 -12 23 -22 46
-22 52 0 16 142 46 220 46 63 0 83 -5 120 -27 25 -14 55 -37 67 -50 26 -28
135 -200 129 -205 -2 -2 -53 -8 -113 -13 -129 -11 -176 -26 -247 -77 -62 -45
-59 -41 -96 -130 -42 -99 -50 -179 -40 -368 9 -176 38 -312 84 -403 34 -68
199 -238 303 -314 46 -33 83 -63 83 -67 0 -3 -33 -46 -72 -94 -92 -112 -118
-147 -118 -161 0 -17 90 -171 177 -305 41 -63 70 -118 66 -122 -5 -5 -74 -38
-153 -74 -161 -73 -231 -117 -370 -235 -102 -87 -250 -167 -459 -250 -57 -22
-117 -51 -135 -64 -17 -13 -50 -29 -73 -35 -24 -7 -43 -14 -43 -18 0 -3 53 -2
118 1 205 12 472 -38 472 -90 0 -7 -14 -26 -32 -41 -18 -16 -46 -41 -62 -57
-25 -24 -44 -30 -125 -42 -53 -8 -156 -26 -230 -40 -73 -14 -134 -24 -136 -22
-1 2 -9 66 -18 144 -9 77 -28 200 -42 274 -22 112 -25 141 -16 177 12 47 16
733 5 803 -5 33 -4 40 10 40 10 0 15 3 13 8 -3 4 -1 79 3 167 5 88 12 217 15
287 l7 126 50 13 c125 29 241 -14 313 -117 48 -69 63 -77 170 -99 117 -24 179
-58 261 -139 103 -103 170 -246 209 -448 l14 -73 -4 90 c-9 180 -73 340 -181
455 -81 86 -165 131 -294 158 -80 17 -98 25 -115 48 -72 98 -85 111 -140 139
-51 26 -69 30 -139 30 -45 0 -96 -4 -113 -8 l-33 -9 0 189 c-1 327 -15 531
-61 833 -61 403 -107 599 -239 1015 -141 442 -207 591 -420 940 -29 47 -41 85
-59 175 -68 344 -186 728 -316 1024 -58 134 -243 525 -255 541 -4 6 -10 21
-13 35 -6 24 -5 24 8 6 8 -11 15 -23 15 -28 0 -12 72 -139 76 -135 3 2 -3 33
-12 68 -22 85 -13 316 20 529 64 408 116 805 132 1010 l8 95 21 -135 c12 -74
34 -196 48 -270z m5841 175 c9 -94 19 -196 22 -227 l7 -58 -62 0 c-35 0 -61 4
-61 10 0 6 11 65 24 133 14 67 30 166 37 219 7 53 14 96 15 95 2 -1 10 -79 18
-172z m-1509 -95 c3 -5 0 -10 -9 -10 -8 0 -23 -3 -33 -6 -16 -5 -16 -4 1 10
23 19 32 20 41 6z m-5245 -60 l24 -50 -22 -138 c-38 -242 -46 -323 -45 -507 0
-287 40 -503 141 -770 46 -123 182 -420 225 -492 11 -19 17 -36 15 -38 -3 -3
-35 45 -73 105 -37 61 -70 110 -72 110 -3 0 5 -17 17 -37 112 -187 222 -396
240 -456 66 -217 86 -358 100 -707 14 -334 36 -494 90 -658 l19 -57 -35 40
c-20 22 -60 69 -89 105 l-54 66 -50 254 c-27 140 -64 327 -81 415 -45 236
-102 499 -110 508 -9 10 -5 -13 26 -165 13 -64 46 -246 74 -405 27 -158 61
-344 74 -413 14 -68 23 -126 21 -128 -2 -3 -33 41 -70 96 -235 359 -414 963
-415 1400 0 51 7 175 16 274 8 99 13 182 11 184 -6 7 -25 -150 -38 -319 -39
-512 160 -1242 450 -1652 31 -44 60 -85 63 -90 4 -6 18 -116 33 -245 68 -617
114 -824 318 -1410 66 -190 167 -444 173 -437 2 2 -10 37 -26 78 -115 277
-287 826 -344 1098 -38 176 -116 784 -103 797 5 5 148 -256 230 -422 123 -247
195 -446 302 -837 90 -327 100 -390 100 -622 0 -175 -4 -222 -29 -372 -16 -95
-32 -173 -35 -173 -9 0 -72 102 -137 220 -31 58 -78 139 -104 180 -26 42 -57
96 -69 120 -13 25 -33 54 -46 65 -30 25 -155 349 -305 785 -140 408 -219 681
-290 1002 -34 156 -33 151 -20 143 12 -8 5 33 -27 145 -33 115 -54 219 -103
515 -51 311 -65 581 -55 1035 6 272 9 308 26 342 23 45 25 61 3 30 -12 -17
-19 -20 -29 -12 -17 14 -31 -5 -39 -55 -10 -59 -16 -64 -64 -58 l-43 6 7 46
c3 25 28 181 55 346 55 338 68 455 50 455 -7 0 -11 21 -11 59 0 52 -3 62 -25
78 l-25 18 41 155 c23 90 47 160 57 167 13 11 14 16 3 37 -11 20 -10 41 9 133
13 59 25 120 28 136 6 39 15 34 42 -23z m5324 35 c4 -11 -3 -19 -21 -26 -38
-14 -66 -6 -30 9 15 6 27 16 27 22 0 16 17 12 24 -5z m-800 -14 c-11 -10 -96
-31 -121 -30 -10 0 14 11 52 23 69 22 88 24 69 7z m839 -93 c23 -62 30 -109
19 -137 -9 -24 -12 -25 -110 -25 -56 -1 -102 2 -102 7 0 4 8 7 18 7 9 1 31 7
47 16 29 14 29 14 -25 9 -30 -2 -90 -14 -134 -25 -43 -12 -80 -19 -83 -17 -2
3 42 23 99 46 93 37 142 61 128 61 -3 0 -84 -24 -180 -53 -126 -38 -185 -51
-210 -47 l-35 6 40 21 c22 11 121 44 220 72 99 29 203 63 230 76 28 13 53 24
56 24 4 1 13 -18 22 -41z m-5243 -178 c35 -74 139 -289 231 -477 195 -398 193
-394 240 -778 30 -253 34 -387 15 -590 -9 -99 -18 -205 -19 -235 -2 -42 -5
-50 -11 -35 -5 11 -43 94 -84 185 -93 207 -122 282 -122 323 -1 30 -2 31 -15
13 -13 -18 -19 -10 -71 100 -177 375 -246 612 -275 939 -19 220 11 732 40 698
5 -4 36 -69 71 -143z m7441 -42 c20 -209 18 -574 -4 -718 -41 -261 -131 -530
-274 -814 -40 -80 -47 -88 -54 -68 -5 12 -13 22 -18 22 -6 0 -7 -9 -2 -22 12
-33 -8 -96 -81 -253 -35 -77 -78 -173 -94 -212 -16 -40 -32 -73 -36 -73 -4 0
-5 6 -2 14 3 8 1 65 -5 127 -32 341 -33 350 -22 497 13 183 45 435 72 567 18
93 35 131 223 515 112 228 218 448 236 488 18 39 36 72 40 72 4 0 13 -64 21
-142z m-882 67 c-3 -2 -20 -15 -39 -28 l-35 -23 -1 -97 -2 -97 33 -28 c18 -15
44 -45 59 -68 24 -38 34 -43 114 -67 48 -14 96 -27 106 -29 36 -6 30 -28 -7
-28 -19 0 -80 -11 -136 -25 -133 -33 -583 -104 -731 -115 l-115 -9 -50 35
c-74 51 -81 57 -88 77 -4 10 -12 17 -19 16 -7 -2 -23 0 -35 5 -18 6 -48 -9
-147 -73 l-124 -79 -149 9 c-166 9 -383 53 -383 77 0 7 5 22 11 34 6 11 8 22
5 25 -3 3 -13 -11 -23 -31 -19 -41 -8 -41 -143 -5 -145 38 -178 73 -179 184
-1 41 7 64 44 129 51 89 54 113 5 36 -18 -28 -34 -49 -36 -47 -4 3 52 166 59
173 2 2 22 -4 46 -12 69 -24 232 -27 731 -15 455 11 684 24 1025 61 195 21
210 22 204 15z m130 -77 c14 -85 24 -181 20 -193 -2 -5 -7 -9 -11 -7 -5 1 -8
-5 -8 -13 0 -8 6 -15 14 -15 13 0 32 -47 23 -56 -2 -2 -24 3 -49 12 -33 11
-54 27 -73 53 -14 21 -36 48 -49 60 -16 15 -22 29 -18 46 6 32 20 32 28 0 10
-40 27 -17 21 28 -6 47 12 90 52 124 14 12 29 22 32 23 4 0 12 -28 18 -62z
m-3669 -12 c0 -2 -7 -7 -16 -10 -8 -3 -12 -2 -9 4 6 10 25 14 25 6z m-60 -30
c0 -2 -37 -26 -82 -52 -106 -61 -232 -158 -292 -224 -49 -55 -54 -52 -32 20
11 40 22 51 91 98 57 39 80 50 90 42 10 -8 19 -3 39 20 27 33 186 115 186 96z
m1290 -12 c0 -18 -24 -84 -31 -84 -4 0 -3 17 2 38 5 20 9 40 9 45 0 9 20 10
20 1z m-1385 -92 c-6 -5 -48 -38 -95 -74 -47 -36 -118 -99 -157 -141 -77 -79
-92 -86 -44 -20 36 50 118 122 218 191 68 46 104 67 78 44z m95 -15 c0 -8 -33
-35 -72 -62 -40 -27 -126 -102 -190 -166 -102 -103 -118 -116 -130 -102 -11
13 0 28 77 101 83 79 290 242 308 242 4 0 7 -6 7 -13z m0 -106 c0 -22 -12 -37
-57 -74 -68 -54 -154 -135 -206 -195 -32 -36 -40 -41 -57 -32 -11 6 -20 15
-20 20 0 16 95 121 166 182 58 50 162 128 171 128 2 0 3 -13 3 -29z m-470 -71
c0 -11 -5 -20 -11 -20 -14 0 -6 -45 23 -138 15 -50 32 -78 70 -118 28 -30 55
-51 59 -48 5 3 37 -13 72 -36 83 -56 567 -294 742 -365 304 -124 405 -169 535
-242 374 -209 511 -300 721 -481 116 -98 205 -207 286 -349 26 -47 60 -98 75
-114 31 -33 62 -128 55 -166 -2 -13 -1 -40 3 -60 5 -19 5 -98 0 -176 -7 -125
-13 -158 -50 -277 -40 -129 -92 -239 -117 -247 -6 -2 -29 22 -51 54 -44 65
-204 228 -224 228 -14 0 -124 67 -168 103 -15 12 -33 22 -39 22 -6 0 -42 22
-79 49 -206 149 -951 590 -1252 741 -185 93 -433 231 -500 278 -88 63 -212
182 -206 199 3 8 -2 13 -13 13 -23 0 -102 105 -146 195 -21 42 -38 98 -44 140
-6 39 -15 102 -21 142 -20 141 -5 301 38 395 30 65 112 181 171 243 57 59 71
66 71 35z m1981 -97 c33 -30 102 -60 195 -83 43 -11 79 -21 80 -23 2 -2 -6
-18 -17 -37 -16 -25 -23 -30 -29 -19 -7 11 -10 11 -15 -2 -5 -14 -33 -18 -163
-24 -86 -4 -161 -10 -167 -15 -5 -4 -36 -11 -67 -14 l-58 -7 0 30 c0 20 5 31
14 31 15 0 63 72 131 194 l39 70 17 -40 c9 -21 27 -49 40 -61z m-1577 -17
c-38 -33 -94 -86 -125 -118 -45 -46 -59 -56 -67 -45 -9 10 3 27 51 74 116 114
202 183 206 165 2 -9 -23 -39 -65 -76z m-939 -14 c72 -70 136 -121 212 -166 1
-1 -3 -34 -9 -75 -12 -82 -10 -81 -103 -41 -65 28 -51 36 19 11 31 -11 56 -16
56 -12 0 14 -56 39 -104 46 -29 4 -64 18 -83 32 -18 14 -34 21 -34 17 -2 -9
-6 15 -27 166 -6 42 -14 83 -18 93 -3 9 -4 17 -2 17 2 0 44 -40 93 -88z m-106
-122 c11 -92 10 -95 -11 -110 -37 -25 -440 -340 -496 -388 l-53 -45 -131 9
-132 9 75 57 74 58 18 -40 c10 -22 22 -40 27 -40 13 0 13 10 -4 58 l-15 41 52
41 c58 46 242 211 441 396 l131 121 7 -36 c3 -20 11 -79 17 -131z m1030 22
c-84 -79 -115 -99 -121 -80 -2 4 44 48 102 98 57 51 106 87 108 81 2 -7 -38
-51 -89 -99z m2846 -3 c256 -212 680 -489 815 -534 17 -5 -28 -10 -132 -14
-86 -4 -160 -9 -164 -13 -9 -10 -79 27 -264 137 -178 106 -265 169 -317 229
-35 41 -36 43 -38 136 -1 52 -5 109 -10 125 -10 35 -19 40 110 -66z m-170 -19
l0 -90 -158 -76 -159 -76 -141 -15 c-114 -11 -226 -13 -564 -7 -233 3 -423 8
-423 11 0 2 16 27 35 55 22 33 36 46 39 37 14 -44 14 -45 15 -28 1 9 10 19 22
22 15 4 20 12 17 29 l-3 23 350 7 c262 6 356 5 373 -4 17 -9 37 -9 85 0 34 6
109 19 167 28 100 15 153 34 100 34 -15 0 9 14 60 35 62 26 185 95 185 104 0
1 0 -40 0 -89z m-2355 16 l0 -54 -67 -6 c-38 -4 -83 -9 -102 -11 -27 -3 -32
-2 -22 8 7 7 24 12 38 12 18 0 31 9 42 28 14 24 83 76 104 77 4 0 7 -24 7 -54z
m1633 18 c47 -8 49 -24 3 -24 -19 0 -37 -3 -39 -7 -3 -5 50 -8 116 -8 76 -1
130 -5 142 -13 16 -9 -12 -11 -142 -12 -90 0 -163 2 -163 4 0 1 5 17 11 35 12
33 14 34 72 25z m-1919 -66 c-36 -35 -74 -65 -83 -66 -19 -5 -19 -5 68 72 86
76 98 71 15 -6z m-878 -153 c20 -8 52 -15 70 -15 l34 0 0 -132 c0 -142 19
-298 47 -388 9 -30 41 -90 70 -132 l52 -78 -127 -39 c-198 -62 -227 -66 -271
-39 -20 12 -65 49 -101 83 -112 105 -144 127 -300 211 -14 7 -58 46 -98 87
l-74 74 84 65 c46 35 148 113 228 174 80 60 164 128 188 152 24 23 47 40 51
37 5 -2 11 5 14 17 6 20 9 19 51 -20 24 -23 61 -48 82 -57z m1188 -12 c24 -38
56 -79 70 -92 30 -28 33 -41 10 -41 -21 0 -394 181 -394 192 0 4 61 8 135 8
l135 0 44 -67z m-2617 -417 c149 -322 214 -493 303 -799 104 -362 188 -911
205 -1347 l6 -155 -94 180 c-92 177 -139 262 -200 358 -17 27 -74 157 -127
290 -53 133 -109 269 -125 302 -15 33 -28 78 -30 100 -1 22 -5 87 -10 145 -5
77 -2 151 10 269 20 190 16 476 -9 656 -28 200 -28 202 -15 181 7 -11 46 -92
86 -180z m6223 109 c-20 -89 -50 -408 -50 -532 0 -72 7 -193 16 -270 12 -102
14 -180 9 -301 -6 -162 -6 -162 -46 -247 -21 -47 -78 -183 -125 -303 -47 -119
-96 -233 -108 -252 -53 -82 -149 -256 -221 -398 -42 -85 -79 -152 -82 -149 -7
8 14 358 33 531 63 609 195 1126 407 1601 119 265 167 368 172 363 2 -2 0 -21
-5 -43z m-5753 -71 c-3 -3 -12 -4 -19 -1 -8 3 -5 6 6 6 11 1 17 -2 13 -5z
m5381 -17 c-9 -7 -69 -48 -133 -92 -220 -150 -319 -229 -462 -369 -79 -76
-145 -137 -148 -134 -2 2 -7 36 -11 75 l-7 71 34 -1 c30 -2 34 1 34 22 0 19
29 46 135 128 207 159 372 273 395 273 20 1 20 1 0 13 -17 10 -12 13 45 18
120 10 137 10 118 -4z m-5092 -44 c-6 -14 5 -26 70 -79 27 -22 43 -43 40 -51
-4 -8 0 -13 9 -11 8 2 63 -47 122 -108 59 -61 130 -125 157 -143 33 -23 44
-36 36 -41 -9 -6 -6 -10 10 -15 18 -6 21 -12 16 -37 -3 -17 -6 -48 -6 -70 l0
-40 -44 39 c-24 21 -106 94 -183 163 -77 69 -217 185 -312 259 -95 75 -168
138 -163 143 4 4 52 11 106 15 53 3 99 10 102 15 8 13 46 -23 40 -39z m-1690
-161 c-18 -16 -18 -16 -6 6 6 13 14 21 18 18 3 -4 -2 -14 -12 -24z m7999 -49
l18 -28 -21 19 c-12 11 -22 23 -22 28 0 14 7 9 25 -19z m-2307 -15 c59 -21 80
-38 46 -38 -8 0 -12 -4 -9 -10 3 -5 15 -10 27 -10 11 0 67 -19 125 -42 l104
-41 -30 -31 c-26 -28 -29 -36 -24 -78 3 -27 3 -48 1 -48 -3 0 -52 22 -109 49
-57 26 -122 54 -144 61 -22 7 -47 18 -55 25 -26 21 -202 37 -453 40 l-241 2
-77 54 c-43 30 -78 57 -79 61 0 4 161 6 358 4 196 -3 340 -2 320 0 -77 10 -35
24 70 24 85 0 120 -4 170 -22z m-3526 -155 c6 -8 9 -15 7 -17 -2 -3 -29 18
-59 46 l-55 50 48 -33 c26 -18 53 -39 59 -46z m545 12 c45 -42 47 -45 23 -45
-15 0 -31 5 -38 12 -9 9 -12 9 -12 -3 0 -10 -19 -18 -57 -25 -78 -15 -256 -86
-323 -128 l-55 -35 -7 72 c-9 94 -8 97 39 87 22 -5 40 -5 43 0 3 5 57 23 120
39 63 16 138 38 165 49 28 12 51 21 52 21 1 1 24 -19 50 -44z m182 -143 c85
-62 99 -71 326 -191 l190 -101 0 -110 c0 -86 3 -113 15 -120 25 -16 30 -1 30
101 0 54 2 99 5 99 20 0 55 -26 50 -38 -3 -7 -5 -56 -5 -107 l0 -93 -36 -17
c-41 -19 -40 -39 3 -43 l30 -3 6 -82 c4 -45 7 -141 7 -213 l0 -131 -107 -6
c-112 -6 -183 -25 -253 -69 -19 -12 -45 -21 -56 -19 -30 3 -119 -98 -171 -195
-40 -76 -82 -202 -84 -254 -1 -14 -7 10 -14 53 -7 43 -25 102 -39 132 -24 48
-46 72 -128 140 -17 14 -27 36 -32 65 -4 25 -17 63 -29 85 -42 76 -170 116
-284 91 l-33 -8 0 54 c0 29 3 97 7 151 l6 98 27 -65 c55 -131 93 -155 146 -93
54 63 170 331 211 487 l9 35 28 -78 c31 -86 92 -186 127 -211 54 -38 106 -8
131 75 6 22 12 39 12 39 1 0 27 -24 59 -54 103 -98 213 -130 291 -84 55 32 83
72 66 93 -18 22 -45 19 -90 -11 -31 -21 -47 -25 -73 -20 -37 7 -163 80 -160
93 12 66 33 280 31 309 -4 39 -4 39 -15 12 -20 -46 -43 -175 -43 -242 0 -66 0
-66 -24 -55 -24 11 -24 12 -9 56 8 24 13 47 10 50 -6 6 -127 -175 -127 -189 0
-47 -102 85 -168 218 -31 60 -31 64 -30 205 l1 144 31 32 c43 47 74 44 155
-15z m-233 -67 c-3 -8 -12 -68 -21 -132 -18 -140 -30 -196 -57 -283 -26 -84
-123 -308 -147 -339 l-19 -24 -31 54 c-61 107 -92 212 -111 379 -13 115 -14
158 -6 167 14 15 367 192 385 192 8 1 11 -5 7 -14z m1043 -401 c12 -11 15 -84
17 -436 1 -233 5 -485 9 -560 4 -79 4 -138 -1 -138 -5 0 -33 14 -61 30 -43 25
-53 35 -53 58 -1 15 -5 74 -11 132 -5 58 -8 276 -7 485 1 209 1 406 0 439 l-2
58 47 -27 c27 -15 54 -34 62 -41z m-2881 -99 c27 -29 102 -202 202 -470 213
-572 265 -779 341 -1370 33 -255 49 -615 32 -705 l-9 -45 -27 80 c-14 44 -46
150 -71 235 -111 386 -225 656 -438 1035 -139 247 -142 252 -121 229 10 -11
58 -71 106 -133 78 -99 90 -110 107 -101 11 6 20 13 20 17 0 3 -20 68 -45 145
-77 239 -98 377 -110 703 -6 155 -23 359 -41 460 -4 24 -1 21 14 -14 10 -24
28 -54 40 -66z m3013 28 c-7 9 -10 17 -7 17 4 0 67 -35 139 -78 73 -43 189
-111 258 -151 l127 -72 6 -222 c7 -248 23 -991 22 -994 -1 -1 -37 26 -81 59
-80 60 -384 265 -481 324 l-51 31 -6 348 c-4 192 -7 445 -7 563 l0 214 48 -28
c29 -17 42 -21 33 -11z m3374 -89 c-8 -54 -19 -205 -25 -334 -17 -382 -30
-474 -106 -719 -45 -143 -50 -181 -27 -188 13 -5 18 0 132 145 45 56 83 102
85 102 2 0 -47 -91 -110 -202 -249 -442 -340 -663 -509 -1238 -20 -69 -40
-129 -45 -133 -16 -17 -23 245 -11 410 23 324 94 798 156 1038 88 342 370
1098 420 1128 8 4 21 27 31 52 9 25 18 44 20 42 2 -2 -3 -48 -11 -103z m1310
45 c33 -10 74 -19 90 -19 77 0 158 -48 191 -111 20 -40 18 -60 -8 -67 -13 -3
-61 -25 -108 -48 -194 -97 -378 -307 -470 -537 -17 -42 -30 -80 -30 -86 0 -6
-14 -26 -30 -45 -38 -42 -55 -92 -71 -197 -15 -104 -6 -251 21 -346 11 -40 20
-75 20 -77 0 -12 -114 -96 -131 -96 -10 0 -44 -10 -75 -21 -99 -37 -247 -198
-345 -375 -9 -16 -35 -39 -57 -51 l-40 -23 49 148 c133 396 259 924 344 1442
15 85 28 157 31 159 3 3 23 15 46 26 34 17 52 39 103 123 66 111 121 174 166
193 24 9 35 9 61 -4 39 -19 48 -14 24 12 -17 19 -17 20 11 24 45 7 143 -4 208
-24z m-2818 -216 c-3 -5 -1 -80 4 -168 l9 -161 -73 -74 c-71 -73 -111 -139
-124 -203 -3 -18 -22 -52 -40 -77 -90 -118 -144 -291 -144 -458 0 -57 2 -107
5 -109 5 -5 -58 -63 -68 -63 -4 0 -22 11 -40 25 -20 15 -46 25 -66 25 -70 0
-189 -168 -239 -335 -11 -39 -27 -79 -35 -90 -13 -18 -15 -18 -41 15 -15 19
-88 94 -161 166 l-134 131 10 124 c5 68 10 159 10 201 0 42 3 79 8 81 4 3 30
7 57 11 l50 6 -42 -18 c-60 -25 -64 -34 -6 -17 213 63 486 170 593 233 25 14
52 26 61 27 21 0 60 47 92 111 37 74 113 307 127 392 9 54 15 71 23 63 19 -19
55 -12 74 13 11 13 32 53 49 90 16 36 33 66 37 66 5 0 6 -3 4 -7z m-1230 -399
c20 -542 31 -909 26 -917 -5 -9 -31 5 -59 32 -21 19 -22 28 -21 223 0 112 -5
313 -11 448 -6 135 -14 319 -18 408 l-7 164 39 -25 39 -24 12 -309z m-2898
-34 c136 -343 325 -942 381 -1215 28 -130 87 -495 105 -650 22 -175 36 -797
19 -845 l-11 -35 -12 60 c-17 83 -47 199 -86 340 -19 66 -73 269 -120 450 -89
339 -135 494 -187 625 -41 104 -160 361 -165 357 -2 -2 17 -53 43 -112 63
-149 136 -350 172 -475 74 -258 239 -955 272 -1148 36 -215 67 -641 75 -1052
l5 -265 -20 80 c-11 44 -38 157 -61 250 -64 266 -123 474 -193 680 -102 303
-145 405 -322 765 -69 139 -71 146 -54 162 34 32 44 120 44 368 0 198 -4 268
-27 445 -54 412 -104 658 -181 900 -14 43 -24 80 -22 82 1 2 42 -80 91 -181
99 -209 124 -247 151 -230 10 6 22 26 27 44 17 66 -23 568 -68 847 -8 51 -15
96 -14 100 2 17 93 -183 158 -347z m4986 179 c-35 -232 -56 -455 -62 -649 -5
-182 -4 -207 10 -219 38 -31 65 8 179 255 45 96 82 173 84 171 2 -1 -13 -52
-32 -111 -81 -257 -122 -460 -175 -871 -27 -211 -32 -283 -32 -460 -1 -231 13
-345 44 -374 19 -17 17 -23 -85 -230 -161 -328 -254 -563 -361 -916 -36 -118
-147 -555 -180 -707 -9 -43 -19 -78 -22 -78 -15 0 17 708 47 1035 22 237 37
323 121 689 141 614 218 878 334 1156 72 172 70 167 58 155 -14 -13 -131 -274
-177 -392 -41 -109 -98 -304 -196 -683 -40 -151 -89 -336 -110 -410 -36 -127
-67 -269 -89 -405 -14 -86 -6 761 9 890 16 143 78 540 106 678 42 207 99 406
261 902 78 239 266 696 280 682 2 -2 -4 -51 -12 -108z m-1955 61 c0 -4 -7 -10
-15 -14 -11 -4 -15 2 -15 21 0 21 2 24 15 13 8 -7 15 -16 15 -20z m-2100 -88
c46 -23 75 -68 89 -141 11 -55 16 -64 55 -90 102 -71 146 -159 146 -294 0
-106 -15 -195 -45 -268 -13 -33 -22 -59 -20 -59 9 0 42 63 61 120 l23 65 -1
-100 c-1 -88 2 -111 31 -194 46 -135 97 -226 170 -304 80 -84 258 -229 411
-334 l115 -78 3 -65 c5 -105 2 -110 -67 -110 l-58 0 -22 59 c-46 127 -145 238
-235 262 -58 16 -198 5 -274 -21 l-62 -22 -35 31 c-20 17 -57 42 -83 55 -76
40 -81 45 -91 119 -11 78 -28 109 -74 137 -56 34 -184 24 -299 -25 -17 -7 -18
4 -18 136 0 206 -18 545 -35 679 -13 94 -44 277 -71 410 -9 44 15 -3 42 -82
26 -76 39 -98 60 -98 21 0 32 31 44 126 6 49 13 90 15 93 3 2 22 8 42 12 52
11 141 2 183 -19z m2284 -43 c-3 -5 -10 -7 -15 -3 -5 3 -7 10 -3 15 3 5 10 7
15 3 5 -3 7 -10 3 -15z m1027 -29 c-25 -56 -31 -59 -31 -17 0 24 6 39 18 46
29 18 32 12 13 -29z m38 -117 c-44 -221 -59 -336 -70 -538 -6 -104 -12 -208
-15 -230 l-4 -40 -98 2 c-61 1 -113 7 -141 18 -27 10 -68 15 -100 14 l-56 -3
1 105 c1 160 50 308 148 444 20 27 36 59 36 71 0 39 59 139 113 192 l54 54 8
-58 c10 -83 21 -106 47 -102 17 2 28 21 53 90 44 118 44 118 47 118 2 0 -9
-62 -23 -137z m-2473 110 c-8 -9 -160 -53 -165 -48 -3 4 144 52 163 54 5 1 6
-2 2 -6z m1479 -3 c11 -18 -16 -41 -39 -34 -31 9 -32 13 -10 29 23 17 40 19
49 5z m39 -111 c-8 -14 -21 -10 -28 7 -10 25 5 40 20 19 7 -10 11 -22 8 -26z
m-1632 15 c-12 -8 -27 -12 -34 -8 -8 5 -6 10 8 15 35 14 50 10 26 -7z m-164
-29 c11 -24 141 -127 214 -168 21 -12 38 -27 38 -34 0 -6 8 -11 18 -11 9 1 71
-35 137 -79 66 -44 165 -102 220 -130 251 -126 543 -316 730 -474 96 -80 303
-292 362 -369 98 -129 162 -263 189 -395 14 -68 15 -98 5 -213 -8 -90 -19
-153 -35 -196 -23 -64 -92 -171 -139 -214 l-25 -24 -7 34 c-11 50 -32 86 -84
141 -25 27 -46 52 -46 56 0 3 -5 6 -10 6 -6 0 -64 37 -131 82 -66 45 -225 140
-353 212 -263 149 -310 178 -579 356 -171 112 -192 130 -186 148 6 19 5 20
-10 8 -18 -15 -21 -13 -186 120 -196 158 -267 259 -321 454 -20 75 -21 87 -10
195 16 160 44 288 82 370 17 39 35 70 39 70 4 0 20 18 35 40 15 22 31 40 35
40 4 0 12 -11 18 -25z m242 0 c0 -19 -43 -40 -65 -31 -23 8 -14 29 16 37 39
11 49 10 49 -6z m1595 -45 c-3 -5 -11 -10 -16 -10 -6 0 -7 5 -4 10 3 6 11 10
16 10 6 0 7 -4 4 -10z m130 -10 c3 -5 -1 -10 -10 -10 -9 0 -13 5 -10 10 3 6 8
10 10 10 2 0 7 -4 10 -10z m-1711 -16 c10 -27 -3 -30 -26 -6 l-22 22 21 0 c11
0 24 -7 27 -16z m1616 -44 c0 -5 -4 -10 -10 -10 -5 0 -10 5 -10 10 0 6 5 10
10 10 6 0 10 -4 10 -10z m-91 -144 c-13 -12 -112 -56 -102 -46 12 13 81 48 97
49 5 1 7 -1 5 -3z m-167 -88 c-7 -7 -12 -8 -12 -2 0 14 12 26 19 19 2 -3 -1
-11 -7 -17z m2807 -1092 c-19 -17 -69 -37 -69 -28 1 14 75 63 78 52 3 -7 -2
-17 -9 -24z m-3856 -111 c23 -15 24 -21 35 -253 7 -130 17 -281 23 -335 6 -54
9 -101 6 -103 -3 -3 -32 9 -66 25 l-61 31 0 324 c0 179 -3 333 -7 343 -7 17
-6 17 20 0 15 -9 37 -24 50 -32z m108 -192 l-4 -118 -18 120 c-23 156 -24 149
4 131 21 -14 22 -20 18 -133z m169 19 c52 -30 159 -88 238 -129 105 -55 146
-82 153 -100 5 -13 9 -102 10 -196 1 -95 4 -217 8 -272 4 -55 6 -101 5 -103
-1 -1 -59 26 -130 61 -71 35 -195 90 -276 122 l-148 59 0 216 c0 119 -3 266
-7 326 l-6 108 29 -19 c16 -10 72 -43 124 -73z m-680 1 c0 -5 -35 -18 -78 -30
-42 -12 -86 -25 -96 -29 -31 -12 -10 14 27 33 52 27 147 43 147 26z m-10 -72
c0 -5 -17 -15 -37 -22 -21 -6 -55 -21 -77 -31 -31 -16 -40 -17 -47 -6 -12 19
-2 24 76 47 83 23 85 24 85 12z m-230 -77 c0 -24 115 -134 200 -191 99 -66
232 -144 331 -194 44 -21 87 -47 97 -57 25 -25 139 -80 337 -163 94 -39 204
-89 245 -112 174 -94 289 -164 351 -213 73 -59 235 -224 265 -269 78 -119 82
-364 8 -595 -38 -120 -58 -164 -100 -210 -47 -52 -173 -119 -148 -79 3 6 7 29
8 52 2 33 -4 47 -36 84 -21 24 -38 48 -38 54 0 24 -85 98 -209 181 -75 50
-179 124 -231 164 -52 39 -119 86 -147 104 -29 17 -52 36 -50 42 1 6 -10 14
-25 18 -29 9 -287 181 -494 331 -164 118 -301 253 -344 338 -49 98 -70 211
-77 407 -5 158 -4 176 17 247 21 71 40 100 40 61z m1412 -205 c3 -46 7 -133 8
-194 l2 -110 13 60 12 60 2 -51 c0 -28 4 -106 8 -174 l6 -123 -31 19 c-18 10
-32 23 -32 29 0 17 -29 461 -34 534 l-5 63 22 -15 c19 -12 23 -27 29 -98z
m-1182 91 c0 -5 -2 -10 -4 -10 -3 0 -8 5 -11 10 -3 6 -1 10 4 10 6 0 11 -4 11
-10z m1210 -67 c0 -55 -5 -54 -14 5 -4 26 -2 42 4 42 5 0 10 -21 10 -47z
m-2927 -328 c150 -383 242 -678 362 -1169 93 -378 167 -716 200 -916 14 -85
27 -167 30 -182 4 -25 0 -28 -48 -42 -79 -23 -220 -56 -239 -56 -15 0 -18 10
-18 68 0 82 -12 130 -89 387 -90 298 -175 522 -446 1180 -198 478 -315 769
-311 773 2 2 43 -74 90 -168 47 -95 106 -202 130 -239 92 -138 111 -135 143
25 39 196 54 326 59 494 2 91 5 170 5 175 0 6 9 -15 21 -45 11 -30 61 -158
111 -285z m1947 280 c0 -15 -26 -20 -54 -9 -28 11 -17 24 19 24 24 0 35 -5 35
-15z m3107 -160 c2 -220 61 -607 95 -629 38 -23 117 90 248 354 69 141 109
206 75 125 -9 -22 -48 -119 -87 -215 -38 -96 -114 -281 -168 -410 -289 -693
-406 -1000 -499 -1307 -73 -242 -91 -314 -91 -374 0 -47 -52 -210 -76 -239
-21 -25 -174 -617 -174 -672 0 -10 -4 -18 -9 -18 -21 0 -28 337 -11 565 6 72
12 166 15 210 12 185 58 584 81 695 4 20 3 22 -5 8 -12 -18 -71 -338 -96 -523
-21 -151 -31 -180 -27 -73 5 123 44 349 117 684 163 735 282 1152 465 1619 54
138 106 274 116 303 10 28 21 52 24 52 3 0 6 -70 7 -155z m-1892 75 c3 -5 1
-10 -4 -10 -6 0 -11 5 -11 10 0 6 2 10 4 10 3 0 8 -4 11 -10z m-69 -199 c-25
-28 -76 -45 -76 -25 0 8 10 14 23 14 13 0 32 7 43 15 27 20 30 19 10 -4z
m-106 -317 c0 -2 -9 0 -20 6 -11 6 -20 13 -20 16 0 2 9 0 20 -6 11 -6 20 -13
20 -16z m2391 -296 c-10 -24 -76 -169 -146 -323 -157 -346 -262 -584 -306
-692 -18 -46 -35 -81 -37 -79 -6 6 52 158 214 559 186 461 185 458 240 522 26
30 49 55 51 55 1 0 -6 -19 -16 -42z m-3408 -100 c31 -21 57 -42 57 -45 0 -3
-11 -20 -24 -38 -24 -31 -28 -32 -142 -44 -64 -6 -118 -10 -120 -8 -2 2 23 30
56 63 33 32 67 73 77 91 9 17 22 29 27 26 6 -4 37 -24 69 -45z m1401 -54 c3
-8 2 -12 -4 -9 -6 3 -10 10 -10 16 0 14 7 11 14 -7z m-1260 -39 c11 -8 15 -15
9 -15 -6 0 -17 -2 -25 -5 -18 -7 -42 10 -34 24 10 15 27 13 50 -4z m69 -47
c19 -11 11 -14 -68 -19 -49 -3 -92 -4 -94 -3 -2 2 -1 10 2 19 8 19 127 21 160
3z m-263 -11 c0 -9 -23 -12 -87 -11 -105 2 -114 5 -48 14 88 12 135 11 135 -3z
m428 -95 c48 -32 157 -102 243 -155 86 -53 176 -114 199 -135 l44 -39 -21 -29
c-11 -16 -71 -123 -132 -239 -62 -115 -116 -214 -121 -219 -9 -9 -95 119 -291
433 -63 101 -147 233 -187 294 -41 60 -76 116 -79 123 -5 14 33 18 185 22 l73
2 87 -58z m-461 38 l61 0 40 -72 c22 -40 91 -149 154 -243 63 -93 141 -213
173 -265 33 -52 89 -137 126 -188 l66 -93 7 -117 c4 -64 9 -140 12 -169 l6
-52 -26 12 c-14 7 -26 15 -26 18 0 3 -52 84 -116 180 -64 96 -145 224 -182
284 -36 61 -139 224 -228 362 -198 306 -198 307 -183 334 8 15 17 19 32 15 12
-3 50 -6 84 -6z m1044 -523 c-13 -23 -49 -91 -81 -152 -31 -60 -75 -139 -97
-176 -22 -36 -69 -122 -104 -192 -34 -70 -64 -125 -66 -123 -2 2 -8 58 -14
125 -11 143 -12 140 91 281 38 52 107 150 152 218 l83 122 30 -30 30 -31 -24
-42z m-1041 -6 c0 -5 -10 -11 -22 -15 -13 -3 -88 -44 -167 -91 -154 -92 -201
-118 -201 -111 0 8 284 183 330 204 52 24 60 25 60 13z m1132 -53 c-15 -15
-24 -6 -16 16 5 12 10 14 17 7 8 -8 8 -14 -1 -23z m-1494 -109 c-131 -94 -201
-149 -195 -155 2 -3 28 11 57 31 28 19 59 35 69 35 15 0 51 13 171 60 30 12
53 20 50 17 -3 -3 -55 -41 -116 -85 -124 -88 -287 -222 -280 -229 3 -3 42 19
88 49 179 118 207 133 311 168 59 20 107 35 107 34 0 -2 -39 -31 -87 -65 -94
-69 -303 -237 -303 -245 0 -9 210 119 250 152 17 14 80 40 65 26 -5 -5 -62
-47 -125 -94 -63 -47 -133 -102 -155 -122 l-40 -37 35 17 c61 29 242 140 330
203 47 34 88 61 92 61 5 0 8 -8 8 -17 0 -19 -48 -52 -137 -97 -58 -29 -68 -42
-25 -32 24 6 22 3 -18 -31 -25 -21 -72 -63 -105 -94 l-60 -56 -130 -27 c-71
-15 -141 -29 -155 -31 -23 -4 -23 -4 -6 8 53 34 74 60 84 99 9 35 8 47 -4 65
-8 13 -18 23 -23 23 -5 0 -9 23 -10 52 0 28 -3 53 -5 55 -3 3 -14 -13 -25 -35
l-20 -40 -58 14 c-32 8 -76 14 -98 14 l-40 1 70 37 c91 48 195 119 270 182 33
29 94 75 135 105 65 46 86 56 133 64 5 0 -42 -35 -105 -80z m1512 73 c0 -18
-121 -121 -143 -122 -4 0 6 27 23 59 24 48 33 58 49 54 11 -3 28 0 38 6 22 13
33 14 33 3z m-1240 -82 c0 -9 -131 -90 -147 -90 -4 0 26 23 67 50 83 55 80 54
80 40z m400 -133 c0 -5 -4 -5 -10 -2 -5 3 -10 14 -10 23 0 15 2 15 10 2 5 -8
10 -19 10 -23z m59 -106 c-15 -5 -22 6 -14 19 6 9 10 9 16 -1 5 -8 4 -15 -2
-18z m-379 -35 c0 -2 -7 -7 -16 -10 -8 -3 -12 -2 -9 4 6 10 25 14 25 6z m-190
-146 c-36 -31 -55 -42 -100 -54 -14 -4 7 13 45 38 81 53 104 59 55 16z m209
-4 c-2 -2 -62 -43 -133 -91 -313 -212 -636 -317 -976 -316 -106 0 -127 3 -137
18 -9 11 -13 13 -13 3 0 -18 -280 -6 -292 13 -5 8 5 14 35 20 23 5 112 25 197
47 143 35 240 52 610 110 116 18 269 51 360 77 24 6 24 5 -8 -31 -18 -21 -31
-40 -29 -43 6 -5 143 81 177 112 14 12 57 32 95 45 39 12 77 26 85 31 15 8 37
12 29 5z m-1722 -362 c-3 -3 -12 -4 -19 -1 -8 3 -5 6 6 6 11 1 17 -2 13 -5z
m143 -4 c0 -5 -8 -10 -17 -10 -15 0 -16 2 -3 10 19 12 20 12 20 0z m-52 -7
c-10 -2 -28 -2 -40 0 -13 2 -5 4 17 4 22 1 32 -1 23 -4z m250 -80 l123 -17 -6
-75 c-3 -42 -15 -143 -25 -226 -10 -82 -24 -217 -31 -298 -6 -81 -14 -146 -16
-143 -3 2 -20 71 -38 153 -42 187 -88 369 -126 499 -16 56 -29 107 -29 113 0
14 4 14 148 -6z"/>
<path d="M8650 8780 c20 -13 33 -13 25 0 -3 6 -14 10 -23 10 -15 0 -15 -2 -2
-10z"/>
<path d="M3098 6949 l-3 -464 -43 90 c-24 50 -68 140 -97 201 -29 62 -71 138
-92 170 -22 33 -43 66 -46 74 -3 9 -6 3 -6 -13 -1 -15 18 -61 43 -105 25 -42
72 -142 105 -222 113 -268 142 -312 173 -258 21 36 17 553 -6 793 -10 105 -20
192 -22 194 -2 2 -5 -205 -6 -460z"/>
<path d="M3778 2454 c-38 -16 -58 -48 -40 -66 7 -7 12 -3 16 10 17 51 159 55
260 7 41 -19 67 -40 89 -71 36 -52 47 -50 20 3 -50 98 -237 161 -345 117z"/>
<path d="M4066 2173 c20 -108 21 -118 5 -129 -15 -12 -15 -13 1 -19 27 -11 38
3 38 48 0 39 -44 192 -60 210 -4 4 3 -45 16 -110z"/>
<path d="M1652 7910 c0 -14 2 -19 5 -12 2 6 2 18 0 25 -3 6 -5 1 -5 -13z"/>
<path d="M4222 6576 c-53 -13 -81 -30 -70 -42 4 -3 15 -1 27 5 32 18 180 29
256 20 152 -18 246 -78 315 -199 24 -42 30 -48 25 -25 -18 85 -113 191 -203
226 -71 28 -265 36 -350 15z"/>
<path d="M4561 3406 c-1 -34 32 -92 62 -107 18 -10 17 -6 -6 18 -16 17 -35 50
-42 74 -12 38 -14 40 -14 15z"/>
<path d="M4815 3140 c-3 -5 -2 -10 4 -10 5 0 13 5 16 10 3 6 2 10 -4 10 -5 0
-13 -4 -16 -10z"/>
<path d="M5630 2620 c0 -5 5 -10 11 -10 5 0 7 5 4 10 -3 6 -8 10 -11 10 -2 0
-4 -4 -4 -10z"/>
<path d="M4514 12785 c3 -9 12 -57 20 -108 9 -52 23 -125 32 -163 21 -94 143
-683 204 -989 28 -137 70 -324 95 -415 24 -91 61 -232 81 -315 20 -82 39 -152
41 -154 2 -3 10 4 18 15 21 26 17 46 -75 419 -44 176 -93 397 -110 490 -17 94
-42 220 -55 280 -14 61 -52 243 -85 405 -34 162 -68 320 -76 350 -22 78 -75
200 -86 200 -6 0 -8 -7 -4 -15z"/>
<path d="M5160 12796 c0 -12 63 -520 84 -681 31 -233 58 -476 87 -782 12 -128
26 -233 30 -233 4 0 16 13 26 30 17 26 18 40 11 112 -63 696 -89 889 -185
1405 -18 101 -32 153 -40 153 -7 0 -13 -2 -13 -4z"/>
<path d="M5915 12788 c-2 -7 -22 -148 -44 -313 -67 -494 -87 -752 -97 -1250
l-5 -300 29 -34 29 -34 6 84 c4 46 14 244 22 439 16 366 41 765 75 1165 24
276 23 255 5 255 -9 0 -18 -6 -20 -12z"/>
<path d="M6759 12773 c-6 -16 -35 -107 -64 -203 -30 -96 -88 -278 -130 -405
-208 -629 -306 -973 -464 -1638 -7 -30 -5 -41 11 -62 11 -14 23 -25 27 -25 4
0 13 19 20 43 7 23 66 211 131 417 118 369 290 961 289 990 0 8 -56 -151 -124
-354 -69 -203 -128 -372 -131 -375 -9 -8 -5 3 101 339 131 414 171 547 279
944 53 192 96 351 96 353 0 2 -7 3 -15 3 -9 0 -20 -12 -26 -27z"/>
<path d="M7400 12095 c-20 -24 -6 -28 15 -5 10 11 13 20 8 20 -6 0 -16 -7 -23
-15z"/>
<path d="M7802 7213 c-23 -255 -34 -517 -27 -667 7 -162 15 -196 43 -196 20 0
79 115 162 315 22 55 64 142 91 193 27 51 47 97 44 102 -12 20 -114 -156 -196
-337 -61 -134 -85 -180 -91 -168 -5 8 -8 213 -6 455 2 242 1 440 -2 440 -4 0
-12 -62 -18 -137z"/>
<path d="M1500 5958 c0 -9 5 -20 10 -23 13 -8 13 5 0 25 -8 13 -10 13 -10 -2z"/>
<path d="M233 4825 c-118 -17 -202 -43 -217 -67 -14 -24 1 -36 17 -13 30 40
335 76 492 57 198 -25 293 -91 341 -241 l21 -66 50 -6 c64 -8 103 -29 145 -79
130 -151 165 -400 84 -594 l-14 -35 -77 30 c-91 36 -187 46 -267 30 -66 -14
-173 -65 -182 -86 -8 -21 3 -19 80 18 65 30 75 32 179 32 90 -1 120 -5 165
-23 86 -35 86 -35 60 -73 -13 -19 -43 -55 -68 -80 -43 -46 -45 -68 -3 -54 20
6 95 83 121 123 l15 23 56 -48 c81 -71 137 -141 204 -259 63 -109 77 -123 180
-176 212 -108 338 -277 406 -543 16 -65 29 -122 29 -129 0 -14 -250 -76 -305
-76 -35 0 -47 6 -80 41 -53 54 -112 88 -167 95 -81 11 -329 -42 -363 -78 l-20
-21 20 8 c116 44 298 80 359 71 54 -9 93 -31 153 -87 64 -61 85 -62 265 -17
70 18 130 29 135 25 4 -5 13 -52 20 -105 l12 -97 -4 108 -5 107 88 0 c59 -1
105 -7 142 -20 56 -19 77 -20 42 -1 -40 21 -138 41 -204 41 -46 0 -70 4 -72
13 -2 6 -11 52 -20 101 -50 270 -189 472 -411 597 -107 60 -108 61 -190 205
-53 92 -147 202 -213 248 l-40 27 24 69 c75 214 35 458 -99 614 -43 52 -122
96 -170 96 -15 0 -29 6 -31 13 -23 73 -47 118 -88 162 -83 91 -177 124 -368
130 -78 3 -163 -1 -227 -10z"/>
<path d="M7080 3950 c-91 -16 -164 -54 -241 -127 -35 -33 -36 -33 -72 -18 -97
40 -212 -13 -304 -142 -86 -120 -115 -259 -73 -351 11 -24 25 -42 31 -40 13 4
13 6 -1 71 -46 204 194 495 340 412 42 -24 56 -18 127 53 77 77 152 118 241
131 31 5 49 9 40 10 -9 0 -22 3 -30 5 -7 2 -33 0 -58 -4z"/>
<path d="M9575 2888 c-653 -283 -956 -439 -1167 -599 -133 -101 -315 -257
-338 -288 -11 -16 -20 -37 -20 -47 0 -13 22 3 73 53 106 105 380 319 493 388
151 91 597 313 934 466 92 41 125 60 105 58 -6 0 -41 -14 -80 -31z"/>
<path d="M2413 1713 c-34 -17 -47 -41 -15 -28 83 34 124 30 178 -17 29 -26 64
-75 64 -91 0 -6 -283 60 -410 95 -94 27 -133 33 -216 33 -98 0 -102 -1 -185
-42 -98 -49 -159 -96 -159 -124 0 -27 17 -24 51 11 17 16 69 49 116 72 116 58
202 63 355 23 57 -15 175 -42 263 -60 88 -19 203 -43 255 -54 63 -14 128 -20
195 -20 l100 2 -65 8 c-254 34 -275 40 -290 84 -33 101 -147 153 -237 108z"/>
<path d="M7026 1569 c-197 -148 -280 -202 -353 -230 -142 -53 -238 -129 -323
-256 -65 -96 -95 -191 -95 -300 0 -67 4 -86 21 -110 12 -15 28 -29 37 -31 25
-5 120 88 105 104 -2 2 -24 -14 -48 -36 -24 -22 -49 -40 -56 -40 -30 0 -32
141 -3 236 56 184 199 329 390 398 26 9 67 30 91 46 53 35 362 300 350 300 -5
0 -57 -36 -116 -81z"/>
<path d="M10444 1640 c-72 -29 -272 -62 -457 -75 -562 -41 -810 -126 -1009
-346 l-64 -70 -62 20 c-34 12 -81 21 -105 21 -159 0 -393 -133 -546 -311 -107
-123 -180 -244 -181 -297 0 -39 49 -78 114 -92 74 -15 82 -7 14 15 -75 24 -98
41 -98 71 0 90 214 349 378 458 165 109 307 141 430 96 l62 -23 103 105 c145
150 254 209 482 263 138 33 279 52 483 65 131 8 201 18 290 40 114 29 232 69
202 69 -8 0 -25 -4 -36 -9z"/>
<path d="M5229 909 c11 -28 45 -83 75 -123 58 -75 195 -225 196 -215 0 3 -44
63 -99 133 -54 70 -115 156 -136 192 -21 35 -42 64 -46 64 -5 0 0 -23 10 -51z"/>
<path d="M2305 628 c-33 -5 -67 -13 -75 -16 -35 -12 29 -14 106 -2 45 7 117
11 161 8 72 -4 92 -10 209 -65 128 -60 174 -77 174 -65 -1 4 -64 39 -142 77
l-142 70 -115 2 c-64 0 -143 -3 -176 -9z"/>
<path d="M4316 496 c42 -19 54 -68 63 -256 6 -125 11 -162 26 -187 24 -41 63
-57 112 -48 41 7 193 82 193 95 0 4 -27 -3 -61 -17 -76 -31 -162 -41 -185 -22
-25 21 -32 47 -43 175 -20 212 -44 274 -104 274 l-32 -1 31 -13z"/>
<path d="M6765 255 c-88 -23 -186 -54 -217 -68 -70 -31 -150 -102 -146 -130 4
-23 33 -45 45 -33 4 5 2 11 -4 13 -23 8 -14 31 26 63 52 40 134 77 306 135 77
27 144 52 150 57 12 10 24 13 -160 -37z"/>
</g>
</svg>
